<svg xmlns="http://www.w3.org/2000/svg" width="179" height="114" viewBox="0 0 179 114">
  <g id="Figure_2" data-name="Figure/2" transform="translate(0 2)">
    <circle id="Oval" cx="30" cy="30" r="30" transform="translate(0 25)" fill="#333"/>
    <rect id="Rectangle" width="15" height="30" transform="translate(52.5 62.5) rotate(-90)" fill="#333"/>
    <circle id="Oval-2" data-name="Oval" cx="55" cy="55" r="55" transform="translate(67)" stroke="#333" stroke-width="4"/>
    <circle id="Oval-3" data-name="Oval" cx="45" cy="45" r="45" transform="translate(77 10)" stroke="#ccc" stroke-width="2"/>
    <path id="Path_15" data-name="Path 15" d="M22-38.5H-22a2.75,2.75,0,0,0-2.75,2.75V2.75A2.75,2.75,0,0,0-22,5.5H22a2.75,2.75,0,0,0,2.75-2.75v-38.5A2.75,2.75,0,0,0,22-38.5ZM22,2.75H-22V-15.125h11.526l3.743,7.49a1.374,1.374,0,0,0,1.23.76c.033,0,.064,0,.1,0A1.374,1.374,0,0,0-4.2-7.815L0-20.4l1.445,4.336a1.376,1.376,0,0,0,1.305.941H15.812a.687.687,0,0,0,.687-.687v-1.375a.687.687,0,0,0-.687-.687H3.741l-2.435-7.31a1.433,1.433,0,0,0-2.611,0l-4.45,13.352L-8.4-17.114a1.375,1.375,0,0,0-1.23-.761H-22V-35.75H22Z" transform="translate(122 73)" fill="#fff"/>
    <circle id="Ellipse_7" data-name="Ellipse 7" cx="21.5" cy="21.5" r="21.5" transform="translate(129 63)"/>
    <path id="Path_16" data-name="Path 16" d="M19.726,2.625,9.648-7.453a.927.927,0,0,0-.664-.273h-.8A16.179,16.179,0,0,0,12.5-18.75,16.247,16.247,0,0,0-3.75-35,16.247,16.247,0,0,0-20-18.75,16.247,16.247,0,0,0-3.75-2.5,16.208,16.208,0,0,0,7.273-6.812v.8a.961.961,0,0,0,.273.664L17.625,4.727a.938.938,0,0,0,1.328,0l.773-.773A.938.938,0,0,0,19.726,2.625ZM-3.75-5A13.74,13.74,0,0,1-17.5-18.75,13.74,13.74,0,0,1-3.75-32.5,13.74,13.74,0,0,1,10-18.75,13.74,13.74,0,0,1-3.75-5Z" transform="translate(155 103)" fill="#fff"/>
    <g id="Logo:_Model_Validation_Toolkit" data-name="Logo: Model Validation Toolkit" transform="translate(7.998 38.859)">
      <path id="Path_18" data-name="Path 18" d="M350.056,2.271,350,2.187l.234-.395.043-.063.516-.692.043-.05.473-.475.043-.036.431-.287.043-.021.39-.142.043-.009L352.645,0l.043,0,.387.1.043.018.387.219.043.031.387.334.043.043.431.5.043.056.514.763.043.07.6,1.092.043.085.731,1.572.043.1.946,2.326.043.111,1.508,4.047.043.118,1.634,4.338.043.109,1.076,2.577.043.1.86,1.823.043.085.817,1.509.043.074.731,1.158.043.063.731.983.043.053.774.861.043.043.732.66.043.035.817.583.043.027.774.426.043.02.774.324.043.015.817.251.043.011,1.16.24.043.007.775.106v.218l-.473-.005h-.043l-2.151-.048h-.043l-1.807-.111-.043,0-1.291-.162-.043-.007-.99-.2-.043-.011-.86-.256-.043-.014-.86-.355-.043-.021-.774-.426-.043-.027-.688-.483-.043-.033-.731-.637-.043-.042-.731-.783-.043-.051-.688-.886-.043-.06-.688-1.04-.043-.07-.774-1.36-.043-.081-.9-1.837-.043-.094-1.076-2.506-.043-.106-2.151-5.69-.043-.118-1.2-3.231-.043-.111-.9-2.238-.043-.1-.686-1.507-.043-.087-.559-1.055-.043-.075" transform="translate(-327.998)" fill="#5570bb"/>
      <path id="Path_19" data-name="Path 19" d="M44,60.96H0v-.014l3.57-.1h.043l1.936-.189.043-.006,1.118-.208.043-.01L7.7,60.17l.043-.014.9-.364.043-.02.774-.421.043-.026.731-.509.043-.033.731-.637.043-.042.734-.782.043-.051.692-.886.043-.06.732-1.11.043-.07.688-1.209.043-.08L14.8,52.4l.043-.091.9-2.032.043-.1.9-2.248.043-.111,1.592-4.275.043-.118,1.506-4,.043-.109.989-2.344.043-.094.688-1.391.043-.079.3-.529h.043l.559,1.019.043.085.646,1.372.043.1.861,2.081.043.11L25.595,43.3l.043.118,1.807,4.834.043.11,1.162,2.808.043.1.947,2,.043.085.9,1.642.043.072.817,1.251.043.06.688.886.043.051.731.783.043.042.731.637.043.033.688.482.043.027.774.426.043.021.86.355.043.014.86.256.043.011.989.2.043.007,1.291.163.043,0,1.807.111h.043l2.151.048h.043l.473.005" transform="translate(0 -32.678)" fill="#1a3d9e"/>
      <path id="Path_20" data-name="Path 20" d="M22.017,2.271l.054-.084-.234-.395-.043-.063-.516-.692-.043-.05L20.76.507,20.718.471,20.287.184,20.245.162,19.857.026,19.814.017,19.428,0l-.043,0L19,.106l-.043.018-.388.219-.043.031-.387.334-.043.043-.431.5-.043.056-.519.763-.041.068-.6,1.092-.043.085-.731,1.572-.043.1L14.7,7.31l-.043.111-1.5,4.048-.043.118-1.634,4.338-.043.109-1.076,2.577-.043.1-.86,1.823-.043.085-.817,1.509-.043.074-.731,1.158-.043.063-.731.983L7,24.455l-.774.861-.043.043-.732.659-.043.035-.817.583-.043.027-.774.426-.043.02-.774.324-.043.015-.817.251-.043.011-1.162.241-.043.007-.774.107v.218l.473-.005H.586l2.151-.048H2.78l1.807-.111.043,0,1.291-.162.043-.007.989-.2L7,27.734l.86-.256.043-.014.86-.355.043-.021.774-.426.043-.027.688-.483.043-.033.731-.637.043-.042.731-.783L11.9,24.6l.688-.886.043-.06.688-1.04.043-.07.774-1.36.043-.081.9-1.837.043-.094L16.2,16.672l.043-.106,2.151-5.69.043-.118,1.2-3.231.043-.111.9-2.236.043-.1.692-1.509.043-.087.559-1.055.043-.075" transform="translate(-0.066)" fill="#7f96d4"/>
    </g>
  </g>
</svg>
