<svg xmlns="http://www.w3.org/2000/svg" width="176.5" height="160.5" viewBox="0 0 176.5 160.5">
  <g id="Figure_1" data-name="Figure/1" transform="translate(0.5)">
    <circle id="Oval" cx="30" cy="30" r="30" transform="translate(116)" fill="#333"/>
    <rect id="Rectangle" width="15" height="30" transform="translate(132.213 32) rotate(45)" fill="#333"/>
    <circle id="Oval-2" data-name="Oval" cx="55" cy="55" r="55" transform="translate(23.5 35.5)" stroke="#333" stroke-width="4"/>
    <circle id="Oval-3" data-name="Oval" cx="45" cy="45" r="45" transform="translate(33.5 45.5)" stroke="#ccc" stroke-width="2"/>
    <circle id="Oval-4" data-name="Oval" cx="19.5" cy="19.5" r="19.5" transform="translate(26.5 120.5)" stroke="#ccc" stroke-width="2"/>
    <circle id="Oval-5" data-name="Oval" cx="19.5" cy="19.5" r="19.5" transform="translate(0.5 76.5)" stroke="#ccc" stroke-width="2"/>
    <circle id="Oval-6" data-name="Oval" cx="19.5" cy="19.5" r="19.5" transform="translate(17.5 28.5)" stroke="#ccc" stroke-width="2"/>
    <g id="network_2" data-name="network 2" transform="translate(-243 16)">
      <g id="Ellipse_1" data-name="Ellipse 1" transform="translate(320 69)" fill="none" stroke="#fff" stroke-width="2">
        <circle cx="5.5" cy="5.5" r="5.5" stroke="none"/>
        <circle cx="5.5" cy="5.5" r="4.5" fill="none"/>
      </g>
      <g id="Ellipse_2" data-name="Ellipse 2" transform="translate(320 49)" fill="none" stroke="#fff" stroke-width="2">
        <circle cx="5.5" cy="5.5" r="5.5" stroke="none"/>
        <circle cx="5.5" cy="5.5" r="4.5" fill="none"/>
      </g>
      <g id="Ellipse_3" data-name="Ellipse 3" transform="translate(320 88)" fill="none" stroke="#fff" stroke-width="2">
        <circle cx="5.5" cy="5.5" r="5.5" stroke="none"/>
        <circle cx="5.5" cy="5.5" r="4.5" fill="none"/>
      </g>
      <g id="Ellipse_4" data-name="Ellipse 4" transform="translate(296 60)" fill="none" stroke="#fff" stroke-width="2">
        <circle cx="5.5" cy="5.5" r="5.5" stroke="none"/>
        <circle cx="5.5" cy="5.5" r="4.5" fill="none"/>
      </g>
      <g id="Ellipse_5" data-name="Ellipse 5" transform="translate(296 78)" fill="none" stroke="#fff" stroke-width="2">
        <circle cx="5.5" cy="5.5" r="5.5" stroke="none"/>
        <circle cx="5.5" cy="5.5" r="4.5" fill="none"/>
      </g>
      <g id="Ellipse_6" data-name="Ellipse 6" transform="translate(341 69)" fill="none" stroke="#fff" stroke-width="2">
        <circle cx="5.5" cy="5.5" r="5.5" stroke="none"/>
        <circle cx="5.5" cy="5.5" r="4.5" fill="none"/>
      </g>
      <line id="Line_7" data-name="Line 7" y1="4" x2="11" transform="translate(308 58)" fill="none" stroke="#fff" stroke-width="2"/>
      <line id="Line_8" data-name="Line 8" y1="4" x2="11" transform="translate(308 77)" fill="none" stroke="#fff" stroke-width="2"/>
      <line id="Line_9" data-name="Line 9" x2="11" y2="5" transform="translate(308 68)" fill="none" stroke="#fff" stroke-width="2"/>
      <line id="Line_10" data-name="Line 10" x2="11" y2="4" transform="translate(308 86)" fill="none" stroke="#fff" stroke-width="2"/>
      <line id="Line_11" data-name="Line 11" x2="15" y2="16" transform="translate(306 71)" fill="none" stroke="#fff" stroke-width="2"/>
      <line id="Line_12" data-name="Line 12" y1="17" x2="15" transform="translate(306 61)" fill="none" stroke="#fff" stroke-width="2"/>
      <line id="Line_13" data-name="Line 13" x2="11" y2="10" transform="translate(331 59)" fill="none" stroke="#fff" stroke-width="2"/>
      <line id="Line_14" data-name="Line 14" y1="9" x2="10" transform="translate(331 80)" fill="none" stroke="#fff" stroke-width="2"/>
      <line id="Line_15" data-name="Line 15" x2="8" transform="translate(332 75)" fill="none" stroke="#fff" stroke-width="2"/>
    </g>
    <path id="Path_12" data-name="Path 12" d="M6.75-18H2.6a2.481,2.481,0,0,0,.028-.375A2.627,2.627,0,0,0,0-21a2.627,2.627,0,0,0-2.625,2.625A2.481,2.481,0,0,0-2.6-18H-6.75A2.251,2.251,0,0,0-9-15.75V.75A2.251,2.251,0,0,0-6.75,3H6.75A2.251,2.251,0,0,0,9,.75v-16.5A2.251,2.251,0,0,0,6.75-18ZM0-19.5a1.122,1.122,0,0,1,1.125,1.125A1.122,1.122,0,0,1,0-17.25a1.122,1.122,0,0,1-1.125-1.125A1.122,1.122,0,0,1,0-19.5ZM7.5.75a.752.752,0,0,1-.75.75H-6.75A.752.752,0,0,1-7.5.75v-16.5a.752.752,0,0,1,.75-.75H-4.5v.937A.564.564,0,0,0-3.938-15H3.937a.564.564,0,0,0,.562-.562V-16.5H6.75a.752.752,0,0,1,.75.75ZM-3.75-5.625A1.122,1.122,0,0,0-4.875-4.5,1.122,1.122,0,0,0-3.75-3.375,1.122,1.122,0,0,0-2.625-4.5,1.122,1.122,0,0,0-3.75-5.625Zm7.875.375h-5.25a.376.376,0,0,0-.375.375v.75a.376.376,0,0,0,.375.375h5.25A.376.376,0,0,0,4.5-4.125v-.75A.376.376,0,0,0,4.125-5.25ZM-3.084-8.325l3.009-2.981a.252.252,0,0,0,0-.356l-.591-.6a.252.252,0,0,0-.356,0l-2.231,2.213-.966-.98a.252.252,0,0,0-.356,0l-.6.591a.252.252,0,0,0,0,.356l1.739,1.753A.241.241,0,0,0-3.084-8.325ZM4.125-9.75H.487l-1.514,1.5H4.125A.376.376,0,0,0,4.5-8.625v-.75A.376.376,0,0,0,4.125-9.75Z" transform="translate(37 57)" fill="#fff"/>
    <path id="Path_13" data-name="Path 13" d="M-8.125-3.75h-2.5a.625.625,0,0,0-.625.625v5a.625.625,0,0,0,.625.625h2.5A.625.625,0,0,0-7.5,1.875v-5A.625.625,0,0,0-8.125-3.75Zm-.625,5H-10V-2.5h1.25ZM10.625-10h-2.5a.625.625,0,0,0-.625.625V1.875a.625.625,0,0,0,.625.625h2.5a.625.625,0,0,0,.625-.625V-9.375A.625.625,0,0,0,10.625-10ZM10,1.25H8.75v-10H10ZM8.389-14.036a1.862,1.862,0,0,0,.986.286,1.875,1.875,0,0,0,1.875-1.875A1.875,1.875,0,0,0,9.375-17.5,1.875,1.875,0,0,0,7.5-15.625a1.855,1.855,0,0,0,.111.611l-3.5,2.8a1.859,1.859,0,0,0-.986-.286,1.859,1.859,0,0,0-.986.286l-3.5-2.8a1.853,1.853,0,0,0,.111-.611A1.875,1.875,0,0,0-3.125-17.5,1.875,1.875,0,0,0-5-15.625a1.856,1.856,0,0,0,.187.8l-3.759,3.759a1.856,1.856,0,0,0-.8-.187A1.875,1.875,0,0,0-11.25-9.375,1.875,1.875,0,0,0-9.375-7.5,1.875,1.875,0,0,0-7.5-9.375a1.856,1.856,0,0,0-.187-.8l3.759-3.759a1.856,1.856,0,0,0,.8.187,1.859,1.859,0,0,0,.986-.286l3.5,2.8a1.857,1.857,0,0,0-.111.611A1.875,1.875,0,0,0,3.125-8.75,1.875,1.875,0,0,0,5-10.625a1.857,1.857,0,0,0-.111-.611Zm.986-2.214a.626.626,0,0,1,.625.625A.626.626,0,0,1,9.375-15a.626.626,0,0,1-.625-.625A.626.626,0,0,1,9.375-16.25Zm-18.75,7.5A.626.626,0,0,1-10-9.375.626.626,0,0,1-9.375-10a.626.626,0,0,1,.625.625A.626.626,0,0,1-9.375-8.75ZM-3.125-15a.626.626,0,0,1-.625-.625.626.626,0,0,1,.625-.625.626.626,0,0,1,.625.625A.626.626,0,0,1-3.125-15Zm6.25,5a.626.626,0,0,1-.625-.625.626.626,0,0,1,.625-.625.626.626,0,0,1,.625.625A.626.626,0,0,1,3.125-10Zm-5,0h-2.5A.625.625,0,0,0-5-9.375V1.875a.625.625,0,0,0,.625.625h2.5a.625.625,0,0,0,.625-.625V-9.375A.625.625,0,0,0-1.875-10ZM-2.5,1.25H-3.75v-10H-2.5ZM4.375-5h-2.5a.625.625,0,0,0-.625.625v6.25a.625.625,0,0,0,.625.625h2.5A.625.625,0,0,0,5,1.875v-6.25A.625.625,0,0,0,4.375-5ZM3.75,1.25H2.5v-5H3.75Z" transform="translate(20 103)" fill="#fff"/>
    <path id="Path_14" data-name="Path 14" d="M0-16.25A11.25,11.25,0,0,0-11.25-5,11.192,11.192,0,0,0-9.724.656a1.236,1.236,0,0,0,1.072.594h17.3A1.236,1.236,0,0,0,9.724.656,11.192,11.192,0,0,0,11.25-5,11.25,11.25,0,0,0,0-16.25ZM8.652,0l-17.3.027A9.987,9.987,0,0,1-10-5,10.011,10.011,0,0,1,0-15,10.011,10.011,0,0,1,10-5,9.889,9.889,0,0,1,8.652,0ZM3.016-12.466a.631.631,0,0,0-.795.386L.2-6.23C.131-6.235.068-6.25,0-6.25a2.5,2.5,0,0,0-2.5,2.5A2.5,2.5,0,0,0,0-1.25a2.5,2.5,0,0,0,2.5-2.5A2.5,2.5,0,0,0,1.382-5.832L3.4-11.671A.626.626,0,0,0,3.016-12.466ZM0-2.5A1.252,1.252,0,0,1-1.25-3.75,1.252,1.252,0,0,1,0-5,1.252,1.252,0,0,1,1.25-3.75,1.252,1.252,0,0,1,0-2.5Z" transform="translate(46 147)" fill="#fff"/>
    <g id="Logo:_Model_Validation_Toolkit" data-name="Logo: Model Validation Toolkit" transform="translate(123.998 12.359)">
      <path id="Path_18" data-name="Path 18" d="M350.056,2.271,350,2.187l.234-.395.043-.063.516-.692.043-.05.473-.475.043-.036.431-.287.043-.021.39-.142.043-.009L352.645,0l.043,0,.387.1.043.018.387.219.043.031.387.334.043.043.431.5.043.056.514.763.043.07.6,1.092.043.085.731,1.572.043.1.946,2.326.043.111,1.508,4.047.043.118,1.634,4.338.043.109,1.076,2.577.043.1.86,1.823.043.085.817,1.509.043.074.731,1.158.043.063.731.983.043.053.774.861.043.043.732.66.043.035.817.583.043.027.774.426.043.02.774.324.043.015.817.251.043.011,1.16.24.043.007.775.106v.218l-.473-.005h-.043l-2.151-.048h-.043l-1.807-.111-.043,0-1.291-.162-.043-.007-.99-.2-.043-.011-.86-.256-.043-.014-.86-.355-.043-.021-.774-.426-.043-.027-.688-.483-.043-.033-.731-.637-.043-.042-.731-.783-.043-.051-.688-.886-.043-.06-.688-1.04-.043-.07-.774-1.36-.043-.081-.9-1.837-.043-.094-1.076-2.506-.043-.106-2.151-5.69-.043-.118-1.2-3.231-.043-.111-.9-2.238-.043-.1-.686-1.507-.043-.087-.559-1.055-.043-.075" transform="translate(-327.998)" fill="#5570bb"/>
      <path id="Path_19" data-name="Path 19" d="M44,60.96H0v-.014l3.57-.1h.043l1.936-.189.043-.006,1.118-.208.043-.01L7.7,60.17l.043-.014.9-.364.043-.02.774-.421.043-.026.731-.509.043-.033.731-.637.043-.042.734-.782.043-.051.692-.886.043-.06.732-1.11.043-.07.688-1.209.043-.08L14.8,52.4l.043-.091.9-2.032.043-.1.9-2.248.043-.111,1.592-4.275.043-.118,1.506-4,.043-.109.989-2.344.043-.094.688-1.391.043-.079.3-.529h.043l.559,1.019.043.085.646,1.372.043.1.861,2.081.043.11L25.595,43.3l.043.118,1.807,4.834.043.11,1.162,2.808.043.1.947,2,.043.085.9,1.642.043.072.817,1.251.043.06.688.886.043.051.731.783.043.042.731.637.043.033.688.482.043.027.774.426.043.021.86.355.043.014.86.256.043.011.989.2.043.007,1.291.163.043,0,1.807.111h.043l2.151.048h.043l.473.005" transform="translate(0 -32.678)" fill="#1a3d9e"/>
      <path id="Path_20" data-name="Path 20" d="M22.017,2.271l.054-.084-.234-.395-.043-.063-.516-.692-.043-.05L20.76.507,20.718.471,20.287.184,20.245.162,19.857.026,19.814.017,19.428,0l-.043,0L19,.106l-.043.018-.388.219-.043.031-.387.334-.043.043-.431.5-.043.056-.519.763-.041.068-.6,1.092-.043.085-.731,1.572-.043.1L14.7,7.31l-.043.111-1.5,4.048-.043.118-1.634,4.338-.043.109-1.076,2.577-.043.1-.86,1.823-.043.085-.817,1.509-.043.074-.731,1.158-.043.063-.731.983L7,24.455l-.774.861-.043.043-.732.659-.043.035-.817.583-.043.027-.774.426-.043.02-.774.324-.043.015-.817.251-.043.011-1.162.241-.043.007-.774.107v.218l.473-.005H.586l2.151-.048H2.78l1.807-.111.043,0,1.291-.162.043-.007.989-.2L7,27.734l.86-.256.043-.014.86-.355.043-.021.774-.426.043-.027.688-.483.043-.033.731-.637.043-.042.731-.783L11.9,24.6l.688-.886.043-.06.688-1.04.043-.07.774-1.36.043-.081.9-1.837.043-.094L16.2,16.672l.043-.106,2.151-5.69.043-.118,1.2-3.231.043-.111.9-2.236.043-.1.692-1.509.043-.087.559-1.055.043-.075" transform="translate(-0.066)" fill="#7f96d4"/>
    </g>
  </g>
</svg>
