<svg xmlns="http://www.w3.org/2000/svg" width="164" height="156" viewBox="0 0 164 156">
  <g id="Figure_3" data-name="Figure/3" transform="translate(2)">
    <circle id="Oval" cx="35" cy="35" r="35" transform="translate(0 44)" stroke="#333" stroke-width="4"/>
    <circle id="Oval-2" data-name="Oval" cx="25" cy="25" r="25" transform="translate(10 54)" stroke="#ccc" stroke-width="2"/>
    <circle id="Oval-3" data-name="Oval" cx="45" cy="45" r="45" transform="translate(61 64)" stroke="#333" stroke-width="4"/>
    <circle id="Oval-4" data-name="Oval" cx="35" cy="35" r="35" transform="translate(71 74)" stroke="#ccc" stroke-width="2"/>
    <circle id="Oval-5" data-name="Oval" cx="20" cy="20" r="20" transform="translate(121 59)" stroke="#ccc" stroke-width="2"/>
    <rect id="Rectangle" width="15" height="30" transform="translate(77.17 28.613) rotate(50)" fill="#333"/>
    <rect id="Rectangle-2" data-name="Rectangle" width="15" height="30" transform="matrix(0.966, -0.259, 0.259, 0.966, 83.373, 38.452)" fill="#333"/>
    <circle id="Oval-6" data-name="Oval" cx="30" cy="30" r="30" transform="translate(56)" fill="#333"/>
    <path id="Path_17" data-name="Path 17" d="M0-15a4.383,4.383,0,0,0-4.375,4.375A.625.625,0,0,0-3.75-10a.625.625,0,0,0,.625-.625A3.13,3.13,0,0,1,0-13.75a.625.625,0,0,0,.625-.625A.625.625,0,0,0,0-15Zm0-2.5a6.847,6.847,0,0,0-6.875,6.884A6.82,6.82,0,0,0-5.173-6.1,10.614,10.614,0,0,1-3.125-2.5l0,2.937a.62.62,0,0,0,.105.345l.957,1.439a.623.623,0,0,0,.52.279H1.54a.623.623,0,0,0,.52-.279L3.018.781A.631.631,0,0,0,3.123.436l0-2.936A10.61,10.61,0,0,1,5.173-6.1a6.844,6.844,0,0,0,1.7-4.523A6.874,6.874,0,0,0,0-17.5S0-17.5,0-17.5ZM1.873.246l-.668,1H-1.206l-.666-1V0H1.874Zm0-1.5h-3.75l0-1.25H1.875Zm2.36-5.676A13.3,13.3,0,0,0,2.259-3.751H-2.257A13.323,13.323,0,0,0-4.234-6.926a5.582,5.582,0,0,1-1.388-3.691s0-.006,0-.008A5.58,5.58,0,0,1,0-16.25a5.631,5.631,0,0,1,5.625,5.625,5.6,5.6,0,0,1-1.391,3.7Zm-12.985-3.7a.625.625,0,0,0-.625-.625h-2.5a.625.625,0,0,0-.625.625.625.625,0,0,0,.625.625h2.5A.625.625,0,0,0-8.75-10.625ZM8.125-15a.631.631,0,0,0,.28-.066l2.5-1.25a.625.625,0,0,0,.346-.559.625.625,0,0,0-.625-.625.628.628,0,0,0-.28.066l-2.5,1.25a.625.625,0,0,0-.346.559A.625.625,0,0,0,8.124-15Zm3.75,3.75h-2.5a.625.625,0,0,0-.625.625A.625.625,0,0,0,9.375-10h2.5a.625.625,0,0,0,.625-.625A.625.625,0,0,0,11.875-11.25Zm-19.72-4.934-2.5-1.25a.622.622,0,0,0-.279-.066.625.625,0,0,0-.625.625.623.623,0,0,0,.345.559l2.5,1.25a.631.631,0,0,0,.28.066h0a.625.625,0,0,0,.625-.625A.624.624,0,0,0-7.845-16.184ZM10.9-4.934,8.4-6.184a.622.622,0,0,0-.279-.066.626.626,0,0,0-.625.625.623.623,0,0,0,.345.559l2.5,1.25a.623.623,0,0,0,.279.066.626.626,0,0,0,.625-.625A.623.623,0,0,0,10.9-4.934ZM-8.125-6.25a.631.631,0,0,0-.28.066l-2.5,1.25a.625.625,0,0,0-.346.56.626.626,0,0,0,.625.625.628.628,0,0,0,.28-.066l2.5-1.25a.625.625,0,0,0,.347-.56.625.625,0,0,0-.625-.625Z" transform="translate(141 87)" fill="#fff"/>
    <g id="network_2" data-name="network 2" transform="translate(-213 38)">
      <g id="Ellipse_1" data-name="Ellipse 1" transform="translate(317 67)" fill="none" stroke="#fff" stroke-width="2">
        <circle cx="4.5" cy="4.5" r="4.5" stroke="none"/>
        <circle cx="4.5" cy="4.5" r="3.5" fill="none"/>
      </g>
      <g id="Ellipse_2" data-name="Ellipse 2" transform="translate(317 50)" fill="none" stroke="#fff" stroke-width="2">
        <circle cx="4.5" cy="4.5" r="4.5" stroke="none"/>
        <circle cx="4.5" cy="4.5" r="3.5" fill="none"/>
      </g>
      <g id="Ellipse_3" data-name="Ellipse 3" transform="translate(317 83)" fill="none" stroke="#fff" stroke-width="2">
        <circle cx="4.5" cy="4.5" r="4.5" stroke="none"/>
        <circle cx="4.5" cy="4.5" r="3.5" fill="none"/>
      </g>
      <g id="Ellipse_4" data-name="Ellipse 4" transform="translate(296 58)" fill="none" stroke="#fff" stroke-width="2">
        <circle cx="4.5" cy="4.5" r="4.5" stroke="none"/>
        <circle cx="4.5" cy="4.5" r="3.5" fill="none"/>
      </g>
      <g id="Ellipse_5" data-name="Ellipse 5" transform="translate(296 74)" fill="none" stroke="#fff" stroke-width="2">
        <circle cx="4.5" cy="4.5" r="4.5" stroke="none"/>
        <circle cx="4.5" cy="4.5" r="3.5" fill="none"/>
      </g>
      <g id="Ellipse_6" data-name="Ellipse 6" transform="translate(335 67)" fill="none" stroke="#fff" stroke-width="2">
        <circle cx="4.5" cy="4.5" r="4.5" stroke="none"/>
        <circle cx="4.5" cy="4.5" r="3.5" fill="none"/>
      </g>
      <line id="Line_7" data-name="Line 7" y1="3" x2="10" transform="translate(306 57)" fill="none" stroke="#fff" stroke-width="2"/>
      <line id="Line_8" data-name="Line 8" y1="3" x2="10" transform="translate(306 74)" fill="none" stroke="#fff" stroke-width="2"/>
      <line id="Line_9" data-name="Line 9" x2="10" y2="5" transform="translate(306 64)" fill="none" stroke="#fff" stroke-width="2"/>
      <line id="Line_10" data-name="Line 10" x2="9" y2="4" transform="translate(306 81)" fill="none" stroke="#fff" stroke-width="2"/>
      <line id="Line_11" data-name="Line 11" x2="12" y2="14" transform="translate(305 68)" fill="none" stroke="#fff" stroke-width="2"/>
      <line id="Line_12" data-name="Line 12" y1="14" x2="13" transform="translate(305 60)" fill="none" stroke="#fff" stroke-width="2"/>
      <line id="Line_13" data-name="Line 13" x2="9" y2="8" transform="translate(326 58)" fill="none" stroke="#fff" stroke-width="2"/>
      <line id="Line_14" data-name="Line 14" y1="7" x2="9" transform="translate(326 76)" fill="none" stroke="#fff" stroke-width="2"/>
      <line id="Line_15" data-name="Line 15" x2="7" transform="translate(327 71)" fill="none" stroke="#fff" stroke-width="2"/>
    </g>
    <g id="network_2-2" data-name="network 2" transform="translate(-273 18)">
      <g id="Ellipse_1-2" data-name="Ellipse 1" transform="translate(307 57)" fill="none" stroke="#fff" stroke-width="1">
        <circle cx="3" cy="3" r="3" stroke="none"/>
        <circle cx="3" cy="3" r="2.5" fill="none"/>
      </g>
      <g id="Ellipse_2-2" data-name="Ellipse 2" transform="translate(307 48)" fill="none" stroke="#fff" stroke-width="1">
        <circle cx="3" cy="3" r="3" stroke="none"/>
        <circle cx="3" cy="3" r="2.5" fill="none"/>
      </g>
      <g id="Ellipse_3-2" data-name="Ellipse 3" transform="translate(307 66)" fill="none" stroke="#fff" stroke-width="1">
        <circle cx="3" cy="3" r="3" stroke="none"/>
        <circle cx="3" cy="3" r="2.5" fill="none"/>
      </g>
      <g id="Ellipse_4-2" data-name="Ellipse 4" transform="translate(294 52)" fill="none" stroke="#fff" stroke-width="1">
        <circle cx="3" cy="3" r="3" stroke="none"/>
        <circle cx="3" cy="3" r="2.5" fill="none"/>
      </g>
      <g id="Ellipse_5-2" data-name="Ellipse 5" transform="translate(294 62)" fill="none" stroke="#fff" stroke-width="1">
        <circle cx="3" cy="3" r="3" stroke="none"/>
        <circle cx="3" cy="3" r="2.5" fill="none"/>
      </g>
      <g id="Ellipse_6-2" data-name="Ellipse 6" transform="translate(319 57)" fill="none" stroke="#fff" stroke-width="1">
        <circle cx="3" cy="3" r="3" stroke="none"/>
        <circle cx="3" cy="3" r="2.5" fill="none"/>
      </g>
      <line id="Line_7-2" data-name="Line 7" y1="2" x2="5" transform="translate(301 52)" fill="none" stroke="#fff" stroke-width="1"/>
      <line id="Line_8-2" data-name="Line 8" y1="2" x2="5" transform="translate(301 62)" fill="none" stroke="#fff" stroke-width="1"/>
      <line id="Line_9-2" data-name="Line 9" x2="5" y2="3" transform="translate(301 56)" fill="none" stroke="#fff" stroke-width="1"/>
      <line id="Line_10-2" data-name="Line 10" x2="5" y2="1" transform="translate(301 66)" fill="none" stroke="#fff" stroke-width="1"/>
      <line id="Line_11-2" data-name="Line 11" x2="7" y2="8" transform="translate(300 58)" fill="none" stroke="#fff" stroke-width="1"/>
      <line id="Line_12-2" data-name="Line 12" y1="8" x2="7" transform="translate(300 54)" fill="none" stroke="#fff" stroke-width="1"/>
      <line id="Line_13-2" data-name="Line 13" x2="5" y2="4" transform="translate(314 53)" fill="none" stroke="#fff" stroke-width="1"/>
      <line id="Line_14-2" data-name="Line 14" y1="4" x2="5" transform="translate(314 63)" fill="none" stroke="#fff" stroke-width="1"/>
      <line id="Line_15-2" data-name="Line 15" x2="4" transform="translate(314 60)" fill="none" stroke="#fff" stroke-width="1"/>
    </g>
    <g id="Logo:_Model_Validation_Toolkit" data-name="Logo: Model Validation Toolkit" transform="translate(63.998 12.471)">
      <path id="Path_18" data-name="Path 18" d="M350.056,2.271,350,2.187l.234-.395.043-.063.516-.692.043-.05.473-.475.043-.036.431-.287.043-.021.39-.142.043-.009L352.645,0l.043,0,.387.1.043.018.387.219.043.031.387.334.043.043.431.5.043.056.514.763.043.07.6,1.092.043.085.731,1.572.043.1.946,2.326.043.111,1.508,4.047.043.118,1.634,4.338.043.109,1.076,2.577.043.1.86,1.823.043.085.817,1.509.043.074.731,1.158.043.063.731.983.043.053.774.861.043.043.732.66.043.035.817.583.043.027.774.426.043.02.774.324.043.015.817.251.043.011,1.16.24.043.007.775.106v.218l-.473-.005h-.043l-2.151-.048h-.043l-1.807-.111-.043,0-1.291-.162-.043-.007-.99-.2-.043-.011-.86-.256-.043-.014-.86-.355-.043-.021-.774-.426-.043-.027-.688-.483-.043-.033-.731-.637-.043-.042-.731-.783-.043-.051-.688-.886-.043-.06-.688-1.04-.043-.07-.774-1.36-.043-.081-.9-1.837-.043-.094-1.076-2.506-.043-.106-2.151-5.69-.043-.118-1.2-3.231-.043-.111-.9-2.238-.043-.1-.686-1.507-.043-.087-.559-1.055-.043-.075" transform="translate(-327.998)" fill="#5570bb"/>
      <path id="Path_19" data-name="Path 19" d="M44,60.96H0v-.014l3.57-.1h.043l1.936-.189.043-.006,1.118-.208.043-.01L7.7,60.17l.043-.014.9-.364.043-.02.774-.421.043-.026.731-.509.043-.033.731-.637.043-.042.734-.782.043-.051.692-.886.043-.06.732-1.11.043-.07.688-1.209.043-.08L14.8,52.4l.043-.091.9-2.032.043-.1.9-2.248.043-.111,1.592-4.275.043-.118,1.506-4,.043-.109.989-2.344.043-.094.688-1.391.043-.079.3-.529h.043l.559,1.019.043.085.646,1.372.043.1.861,2.081.043.11L25.595,43.3l.043.118,1.807,4.834.043.11,1.162,2.808.043.1.947,2,.043.085.9,1.642.043.072.817,1.251.043.06.688.886.043.051.731.783.043.042.731.637.043.033.688.482.043.027.774.426.043.021.86.355.043.014.86.256.043.011.989.2.043.007,1.291.163.043,0,1.807.111h.043l2.151.048h.043l.473.005" transform="translate(0 -32.678)" fill="#1a3d9e"/>
      <path id="Path_20" data-name="Path 20" d="M22.017,2.271l.054-.084-.234-.395-.043-.063-.516-.692-.043-.05L20.76.507,20.718.471,20.287.184,20.245.162,19.857.026,19.814.017,19.428,0l-.043,0L19,.106l-.043.018-.388.219-.043.031-.387.334-.043.043-.431.5-.043.056-.519.763-.041.068-.6,1.092-.043.085-.731,1.572-.043.1L14.7,7.31l-.043.111-1.5,4.048-.043.118-1.634,4.338-.043.109-1.076,2.577-.043.1-.86,1.823-.043.085-.817,1.509-.043.074-.731,1.158-.043.063-.731.983L7,24.455l-.774.861-.043.043-.732.659-.043.035-.817.583-.043.027-.774.426-.043.02-.774.324-.043.015-.817.251-.043.011-1.162.241-.043.007-.774.107v.218l.473-.005H.586l2.151-.048H2.78l1.807-.111.043,0,1.291-.162.043-.007.989-.2L7,27.734l.86-.256.043-.014.86-.355.043-.021.774-.426.043-.027.688-.483.043-.033.731-.637.043-.042.731-.783L11.9,24.6l.688-.886.043-.06.688-1.04.043-.07.774-1.36.043-.081.9-1.837.043-.094L16.2,16.672l.043-.106,2.151-5.69.043-.118,1.2-3.231.043-.111.9-2.236.043-.1.692-1.509.043-.087.559-1.055.043-.075" transform="translate(-0.066)" fill="#7f96d4"/>
    </g>
  </g>
</svg>
